<?xml version="1.0" standalone="no"?>
<!DOCTYPE svg PUBLIC "-//W3C//DTD SVG 20010904//EN"
 "http://www.w3.org/TR/2001/REC-SVG-20010904/DTD/svg10.dtd">
<svg version="1.0" xmlns="http://www.w3.org/2000/svg"
 width="264.000000pt" height="280.000000pt" viewBox="0 0 264.000000 280.000000"
 preserveAspectRatio="xMidYMid meet">

<g transform="translate(0.000000,280.000000) scale(0.100000,-0.100000)"
fill="#000000" stroke="none">
<path d="M1264 2578 c24 -34 20 -49 -8 -42 -35 9 -93 -13 -135 -51 -46 -41
-223 -131 -276 -140 -22 -3 -53 -9 -69 -12 l-29 -5 24 -19 24 -18 -26 -28
c-36 -38 -49 -66 -49 -102 0 -19 -11 -43 -30 -65 -17 -18 -28 -40 -25 -48 3
-8 -8 -40 -24 -72 l-29 -58 24 6 c30 8 31 -12 4 -71 -15 -35 -24 -43 -45 -43
-15 0 -24 -4 -20 -10 3 -5 17 -10 31 -10 18 0 24 -5 24 -21 0 -34 -32 -91 -68
-123 -18 -16 -30 -31 -28 -34 7 -6 43 18 84 56 l33 31 -6 -32 c-4 -18 -16 -49
-26 -69 -11 -21 -15 -38 -10 -38 6 0 44 18 85 39 l75 40 7 -66 c7 -66 2 -181
-10 -218 -3 -11 0 -8 7 7 l13 28 17 -29 c37 -63 131 -90 196 -56 37 18 79 69
87 103 9 38 21 50 56 57 47 11 75 -10 93 -70 27 -96 80 -137 171 -136 93 1
173 57 193 136 6 25 17 45 24 45 8 0 9 3 1 8 -6 4 -17 24 -24 46 -13 41 -75
108 -124 133 -47 24 -99 19 -150 -16 -57 -40 -96 -87 -96 -116 0 -23 -3 -24
-48 -18 -29 3 -58 1 -70 -6 -20 -11 -22 -9 -22 14 0 41 -37 102 -77 130 -42
28 -112 34 -157 13 -25 -11 -62 -56 -53 -64 2 -3 12 7 21 20 16 25 69 46 116
46 34 0 96 -44 116 -82 9 -17 17 -56 17 -87 1 -45 -3 -63 -22 -90 -43 -60
-128 -78 -189 -41 -52 32 -71 88 -71 202 1 53 -2 101 -5 107 -4 6 11 22 33 36
51 31 58 31 37 0 -16 -24 -16 -25 8 -25 24 0 111 21 151 36 20 7 20 7 1 -15
l-20 -22 60 7 c209 21 215 22 301 69 47 25 106 61 132 79 54 38 91 35 91 -7 0
-33 52 -108 90 -131 l32 -18 -8 23 c-22 65 -1 90 34 39 27 -41 42 -93 45 -161
2 -57 6 -54 -92 -79 -23 -6 -41 -14 -38 -16 3 -3 32 2 65 10 33 9 63 16 67 16
4 0 5 -42 3 -92 -5 -84 -13 -116 -53 -210 -6 -15 -3 -15 33 2 33 16 60 43 109
109 2 3 10 -4 17 -15 11 -14 18 -16 26 -8 10 10 11 28 9 94 -1 29 46 140 59
140 27 0 17 -185 -14 -270 -28 -73 -41 -87 -108 -111 l-64 -22 -22 -81 c-12
-44 -30 -97 -41 -117 -20 -40 -117 -126 -183 -163 -22 -12 -78 -44 -123 -69
-154 -88 -257 -108 -376 -73 -77 22 -133 85 -212 236 -35 69 -65 121 -65 115
0 -5 23 -54 51 -109 114 -223 149 -254 306 -271 78 -9 155 15 295 89 78 40
101 49 115 40 31 -19 25 -32 -29 -67 -51 -32 -146 -135 -267 -290 -29 -37 -57
-67 -63 -67 -15 0 -162 154 -197 207 l-31 47 20 21 c28 30 25 43 -4 16 l-24
-23 -12 22 c-7 12 -10 31 -7 41 3 10 1 19 -4 19 -13 0 -11 -54 3 -87 7 -15 27
-49 46 -76 27 -38 32 -50 22 -62 -9 -11 -9 -22 1 -50 17 -46 6 -56 -50 -45
-31 6 -55 19 -85 49 l-41 41 0 83 c0 71 4 89 27 130 15 26 22 45 16 41 -16
-10 -58 -107 -58 -135 0 -31 -7 -38 -80 -77 -95 -49 -218 -133 -235 -158 -24
-38 -75 -204 -74 -244 l1 -35 9 40 c5 22 16 66 26 99 13 44 19 54 24 40 5 -12
8 -1 8 32 1 46 4 53 39 80 20 16 70 50 110 74 168 104 172 105 172 67 0 -32
47 -101 84 -123 17 -10 49 -21 71 -24 l40 -5 3 -117 c2 -112 4 -118 24 -118
18 0 20 4 15 39 -2 22 -1 43 3 48 4 4 4 37 -1 72 -6 42 -6 68 1 75 7 7 32 5
77 -6 73 -18 84 -16 98 11 10 19 98 127 201 245 51 60 77 79 165 126 212 114
259 150 273 212 l6 26 -49 -18 c-26 -11 -58 -16 -70 -13 -20 5 -21 7 -6 29 8
13 28 63 43 111 27 83 31 89 68 106 79 35 89 44 115 91 38 70 53 151 46 255
-4 59 -2 92 6 100 22 22 60 12 99 -26 21 -20 38 -32 38 -27 0 6 -24 47 -54 91
-76 113 -101 170 -87 199 7 17 19 24 38 24 l28 0 -32 20 c-41 25 -73 88 -80
156 -6 59 -1 64 37 34 27 -21 66 -25 90 -10 12 8 9 10 -11 10 -40 0 -93 65
-113 136 -26 93 -46 125 -91 144 -22 9 -57 36 -77 58 -52 58 -69 64 -155 60
l-76 -3 -12 47 c-12 49 -58 112 -87 121 -16 5 -16 3 -1 -20 16 -24 16 -26 -8
-44 -43 -33 -82 -25 -144 31 -60 54 -75 62 -51 28z m204 -967 c108 -55 153
-171 99 -252 -44 -66 -154 -103 -221 -75 -63 26 -106 102 -106 188 0 46 54
111 115 139 51 23 67 23 113 0z m442 -295 c0 -8 -4 -18 -10 -21 -5 -3 -10 3
-10 14 0 12 5 21 10 21 6 0 10 -6 10 -14z m-80 -465 c0 -27 -20 -48 -94 -95
-130 -85 -144 -90 -178 -59 -18 16 -17 17 20 42 21 14 60 44 87 66 33 28 55
39 74 37 15 -2 38 1 51 7 32 13 40 13 40 2z m-800 -481 c0 -5 -7 -10 -15 -10
-8 0 -15 5 -15 10 0 6 7 10 15 10 8 0 15 -4 15 -10z m65 -51 l40 -42 -34 7
c-18 3 -42 6 -52 6 -19 0 -25 23 -13 54 9 23 16 20 59 -25z m-72 -76 c4 -63 2
-103 -3 -103 -6 0 -10 45 -10 107 0 58 2 104 4 102 2 -2 6 -50 9 -106z m1
-155 c4 -17 2 -28 -4 -28 -5 0 -10 14 -10 32 0 36 4 35 14 -4z"/>
<path d="M1360 1691 c-30 -9 -64 -23 -75 -30 -19 -11 -19 -12 5 -8 14 2 52 10
85 17 57 12 63 11 122 -13 34 -14 64 -22 68 -19 10 10 -98 72 -125 71 -14 0
-50 -8 -80 -18z"/>
<path d="M1021 1148 c-1 -24 21 -48 43 -48 15 0 4 18 -13 23 -11 2 -21 15 -24
28 -4 22 -4 22 -6 -3z"/>
<path d="M711 1060 c0 -8 6 -24 14 -34 19 -25 19 -9 0 24 -8 14 -14 19 -14 10z"/>
<path d="M1335 974 c-22 -20 -64 -47 -94 -61 -44 -21 -63 -25 -111 -20 -58 5
-112 25 -162 59 -23 16 -28 17 -28 5 0 -28 67 -112 114 -144 41 -28 57 -33
108 -33 73 0 160 42 195 93 22 33 43 137 27 137 -5 -1 -27 -17 -49 -36z m35
-33 c0 -24 -53 -81 -110 -117 -82 -51 -190 -27 -259 58 -30 37 -23 44 20 19
49 -28 123 -39 189 -27 21 3 90 41 120 65 31 26 40 26 40 2z"/>
<path d="M1907 893 c29 -6 53 -40 53 -74 0 -32 -32 -74 -72 -95 -41 -21 -29
-29 17 -10 78 33 89 21 110 -120 14 -92 34 -177 51 -219 8 -19 7 -19 -16 -3
-14 10 -62 40 -108 68 -173 106 -299 90 -504 -67 -44 -33 -63 -34 -53 -4 7 23
-19 48 -31 30 -4 -8 -3 -9 4 -5 7 4 12 1 12 -9 0 -9 -4 -13 -10 -10 -6 4 -10
-6 -10 -24 0 -25 -8 -35 -57 -65 -32 -20 -53 -36 -48 -36 6 0 28 11 50 25 22
13 43 25 47 25 4 0 9 -21 11 -47 3 -37 4 -31 5 25 3 103 22 91 24 -15 l2 -88
3 72 4 71 52 39 c82 62 168 111 216 123 76 20 176 5 246 -38 175 -106 231
-157 281 -256 18 -38 34 -60 34 -49 0 33 -51 123 -95 166 -36 36 -45 54 -63
127 -12 47 -25 117 -28 155 -5 64 -36 155 -52 155 -4 0 -13 4 -21 9 -11 7 -10
13 4 35 30 46 -3 117 -54 115 -23 -2 -24 -2 -4 -6z"/>
<path d="M2122 205 c0 -16 2 -22 5 -12 2 9 2 23 0 30 -3 6 -5 -1 -5 -18z"/>
<path d="M1366 156 c2 -16 4 -44 4 -62 0 -24 5 -34 15 -34 11 0 15 10 14 38
l-2 37 -8 -35 c-7 -32 -8 -31 -5 13 2 26 0 47 -4 47 -5 0 -11 6 -13 13 -2 6
-3 -1 -1 -17z"/>
<path d="M2133 125 c0 -22 2 -30 4 -17 2 12 2 30 0 40 -3 9 -5 -1 -4 -23z"/>
<path d="M482 115 c-1 -22 3 -58 7 -80 8 -34 9 -36 9 -10 0 17 -3 53 -8 80 -7
49 -7 49 -8 10z"/>
<path d="M2132 40 c0 -14 2 -19 5 -12 2 6 2 18 0 25 -3 6 -5 1 -5 -13z"/>
</g>
</svg>
